<svg xmlns="http://www.w3.org/2000/svg" width="401" height="401" viewBox="0 0 401 401">
    <g class="moon"><path class="cls-1" d="M64.1656,54.1651A200.3373,200.3373,0,0,1,232.18,3,145.8629,145.8629,0,1,0,398.6393,173.1137,201.048,201.048,0,0,1,400.5,200.5c0,110.46-89.54,200-200,200S.5,310.96.5,200.5A199.4542,199.4542,0,0,1,64.1656,54.1651Z"/></g>
    <g class="sun"><circle class="cls-1" cx="200.5" cy="200.5" r="114.2766"/></g>
    <g class="beams"><line class="cls-1" x1="200.5" y1="62.7766" x2="200.5" y2="0.5"/><line class="cls-1" x1="297.8852" y1="103.1148" x2="341.9214" y2="59.0786"/><line class="cls-1" x1="338.2234" y1="200.5" x2="400.5" y2="200.5"/><line class="cls-1" x1="297.8852" y1="297.8852" x2="341.9214" y2="341.9214"/><line class="cls-1" x1="200.5" y1="338.2234" x2="200.5" y2="400.5"/><line class="cls-1" x1="103.1148" y1="297.8852" x2="59.0786" y2="341.9214"/><line class="cls-1" x1="62.7766" y1="200.5" x2="0.5" y2="200.5"/><line class="cls-1" x1="103.1148" y1="103.1148" x2="59.0786" y2="59.0786"/></g>
</svg>